<svg width="1920" height="760" viewBox="0 0 1920 760" xmlns="http://www.w3.org/2000/svg">
<defs>
<radialGradient id="bg" cx="55%" cy="45%" r="80%">
<stop offset="0%" stop-color="#073b9a"/>
<stop offset="50%" stop-color="#020617"/>
<stop offset="100%" stop-color="#000000"/>
</radialGradient>
<filter id="glow"><feGaussianBlur stdDeviation="5"/><feMerge><feMergeNode/><feMergeNode in="SourceGraphic"/></feMerge></filter>
</defs>

<rect width="1920" height="760" fill="url(#bg)"/>

<g stroke="#00eaff" opacity=".7" fill="none" filter="url(#glow)">
<path d="M480 120 C650 40 850 210 1050 90 C1280 0 1450 130 1700 70"/>
<path d="M520 180 C720 100 900 250 1180 150 C1380 80 1540 200 1760 140"/>
<circle cx="650" cy="110" r="8"/><circle cx="930" cy="170" r="8"/><circle cx="1160" cy="100" r="8"/><circle cx="1410" cy="135" r="8"/><circle cx="1580" cy="90" r="8"/>
</g>

<g transform="translate(420,250)" filter="url(#glow)">
<rect x="0" y="130" width="55" height="170" fill="#020617" stroke="#00eaff"/>
<rect x="80" y="70" width="65" height="230" fill="#020617" stroke="#9d4dff"/>
<rect x="170" y="20" width="80" height="280" fill="#020617" stroke="#00eaff"/>
<rect x="280" y="95" width="65" height="205" fill="#020617" stroke="#9d4dff"/>
<rect x="375" y="0" width="90" height="300" fill="#020617" stroke="#00eaff"/>
<rect x="500" y="60" width="75" height="240" fill="#020617" stroke="#9d4dff"/>
<rect x="610" y="-30" width="95" height="330" fill="#020617" stroke="#00eaff"/>
<rect x="735" y="55" width="70" height="245" fill="#020617" stroke="#9d4dff"/>
<rect x="835" y="10" width="85" height="290" fill="#020617" stroke="#00eaff"/>
<rect x="950" y="90" width="70" height="210" fill="#020617" stroke="#9d4dff"/>
</g>

<g filter="url(#glow)" font-family="Arial" font-size="18">
<rect x="390" y="205" width="230" height="70" rx="12" fill="#020617cc" stroke="#00eaff"/>
<text x="415" y="235" fill="#00eaff" font-weight="700">REAL ESTATE</text>
<text x="415" y="260" fill="white">Buy • Sell • Invest</text>

<rect x="390" y="315" width="230" height="70" rx="12" fill="#020617cc" stroke="#00eaff"/>
<text x="415" y="345" fill="#00eaff" font-weight="700">FORECLOSURES</text>
<text x="415" y="370" fill="white">Hot Deals Daily</text>

<rect x="1320" y="205" width="230" height="70" rx="12" fill="#020617cc" stroke="#00eaff"/>
<text x="1345" y="235" fill="#00eaff" font-weight="700">VEHICLES</text>
<text x="1345" y="260" fill="white">Cars • Trucks • RVs</text>

<rect x="1320" y="315" width="230" height="70" rx="12" fill="#020617cc" stroke="#00eaff"/>
<text x="1345" y="345" fill="#00eaff" font-weight="700">SERVICES</text>
<text x="1345" y="370" fill="white">Local Professionals</text>

<rect x="1320" y="425" width="230" height="70" rx="12" fill="#020617cc" stroke="#00eaff"/>
<text x="1345" y="455" fill="#00eaff" font-weight="700">TOOLS & JOBS</text>
<text x="1345" y="480" fill="white">Post • Hire • Sell</text>
</g>

<line x1="0" y1="610" x2="1920" y2="610" stroke="#00eaff" stroke-width="3" filter="url(#glow)"/>
<text x="920" y="610" fill="#00eaff" font-size="100" font-family="Arial" font-weight="900" filter="url(#glow)">X</text>
</svg>
